<?xml version="1.0" encoding="utf-8"?>
<!-- Generator: Adobe Illustrator 20.1.0, SVG Export Plug-In . SVG Version: 6.00 Build 0)  -->
<svg version="1.1" id="Слой_1" xmlns="http://www.w3.org/2000/svg" xmlns:xlink="http://www.w3.org/1999/xlink" x="0px" y="0px"
	 viewBox="0 0 30 30" style="enable-background:new 0 0 30 30;" xml:space="preserve">
<style type="text/css">
	.st0{fill-rule:evenodd;clip-rule:evenodd;fill:#BCBCBC;}
</style>
<path class="st0" d="M26,26H4c-1.1,0-2-0.9-2-2v-2c0-1.1,0.9-2,2-2h22c1.1,0,2,0.9,2,2v2C28,25.1,27.1,26,26,26z M26,22H4v2h22V22z
	 M26,18H4c-1.1,0-2-0.9-2-2v-2c0-1.1,0.9-2,2-2h22c1.1,0,2,0.9,2,2v2C28,17.1,27.1,18,26,18z M26,14H4v2h22V14z M22,5h6l-3,4L22,5z
	 M18,10H4c-1.1,0-2-0.9-2-2V6c0-1.1,0.9-2,2-2h14c1.1,0,2,0.9,2,2v2C20,9.1,19.1,10,18,10z M18,6H4v2h14V6z"/>
</svg>
