<?xml version="1.0" encoding="utf-8"?>
<!-- Generator: Adobe Illustrator 21.1.0, SVG Export Plug-In . SVG Version: 6.00 Build 0)  -->
<svg version="1.1" id="Слой_1" xmlns="http://www.w3.org/2000/svg" xmlns:xlink="http://www.w3.org/1999/xlink" x="0px" y="0px"
	 viewBox="0 0 30 30" style="enable-background:new 0 0 30 30;" xml:space="preserve">
<style type="text/css">
	.st0{fill:#BCBCBC;}
</style>
<g>
	<path class="st0" d="M26,24h-8c-1.1,0-2,0.9-2,2s0.9,2,2,2h8c1.1,0,2-0.9,2-2S27.1,24,26,24z"/>
	<path class="st0" d="M26,2H4C2.9,2,2,2.9,2,4v16c0,1.1,0.9,2,2,2h22c1.1,0,2-0.9,2-2V4C28,2.9,27.1,2,26,2z M26,20H4V4h22V20z"/>
</g>
<rect x="6" y="6" class="st0" width="18" height="2"/>
<rect x="6" y="9" class="st0" width="10" height="2"/>
</svg>
