<?xml version="1.0" encoding="utf-8"?>
<!-- Generator: Adobe Illustrator 20.1.0, SVG Export Plug-In . SVG Version: 6.00 Build 0)  -->
<svg version="1.1" id="Слой_1" xmlns="http://www.w3.org/2000/svg" xmlns:xlink="http://www.w3.org/1999/xlink" x="0px" y="0px"
	 viewBox="0 0 30 30" style="enable-background:new 0 0 30 30;" xml:space="preserve">
<style type="text/css">
	.st0{fill-rule:evenodd;clip-rule:evenodd;fill:#BCBCBC;}
</style>
<path class="st0" d="M26,27H4c-1.1,0-2-0.9-2-2V4c0-1.1,0.9-2,2-2h22c1.1,0,2,0.9,2,2v21C28,26.1,27.1,27,26,27z M26,4H4v21h22V4z
	 M8,9H6V7h2V9z M8,13H6v-2h2V13z M8,17H6v-2h2V17z M8,21H6v-2h2V21z M24,9H10V7h14V9z M24,13H10v-2h14V13z M24,17H10v-2h14V17z
	 M24,21H10v-2h14V21z"/>
</svg>
