<?xml version="1.0" encoding="utf-8"?>
<!-- Generator: Adobe Illustrator 20.1.0, SVG Export Plug-In . SVG Version: 6.00 Build 0)  -->
<svg version="1.1" id="Слой_1" xmlns="http://www.w3.org/2000/svg" xmlns:xlink="http://www.w3.org/1999/xlink" x="0px" y="0px"
	 viewBox="0 0 72 72" style="enable-background:new 0 0 72 72;" xml:space="preserve">
<style type="text/css">
	.st0{fill-rule:evenodd;clip-rule:evenodd;fill:#2A71DC;}
</style>
<path class="st0" d="M36,71C16.7,71,1,55.3,1,36C1,16.7,16.7,1,36,1c19.3,0,35,15.7,35,35C71,55.3,55.3,71,36,71z M36,4.7
	C18.8,4.7,4.7,18.8,4.7,36c0,17.2,14.1,31.3,31.3,31.3S67.3,53.2,67.3,36C67.3,18.8,53.2,4.7,36,4.7z M14,33.1l2.7-2.7l15.1,15.3
	l23.5-23.5l2.7,2.7L31.8,51.1L14,33.1z"/>
</svg>
