<?xml version="1.0" encoding="utf-8"?>
<!-- Generator: Adobe Illustrator 20.1.0, SVG Export Plug-In . SVG Version: 6.00 Build 0)  -->
<svg version="1.1" id="Слой_1" xmlns="http://www.w3.org/2000/svg" xmlns:xlink="http://www.w3.org/1999/xlink" x="0px" y="0px"
	 viewBox="0 0 30 30" style="enable-background:new 0 0 30 30;" xml:space="preserve">
<style type="text/css">
	.st0{fill-rule:evenodd;clip-rule:evenodd;fill:#BCBCBC;}
</style>
<path class="st0" d="M25,28H5c-1.7,0-3-1.3-3-3V5c0-1.7,1.3-3,3-3h20c1.7,0,3,1.3,3,3v20C28,26.7,26.7,28,25,28z M10,4H4v6h6V4z
	 M10,12H4v6h6V12z M10,20H4v6h6V20z M18,4h-6v6h6V4z M18,12h-6v6h6V12z M18,20h-6v6h6V20z M26,4h-6v6h6V4z M26,12h-6v6h6V12z M26,20
	h-6v6h6V20z"/>
</svg>
