<?xml version="1.0" encoding="utf-8"?>
<!-- Generator: Adobe Illustrator 21.1.0, SVG Export Plug-In . SVG Version: 6.00 Build 0)  -->
<svg version="1.1" id="layer" xmlns="http://www.w3.org/2000/svg" xmlns:xlink="http://www.w3.org/1999/xlink" x="0px" y="0px"
	 viewBox="0 0 22 22" style="enable-background:new 0 0 22 22;" xml:space="preserve">
<style type="text/css">
	.st0{fill:#444444;}
</style>
<path class="st0" d="M9.3,12.7c0.5,0.5,0.5,1.2,0,1.7c-0.5,0.5-1.2,0.5-1.7,0C5.3,12,5.3,8.3,7.6,6l0,0l4.2-4.2
	c2.3-2.3,6.1-2.3,8.4,0c2.3,2.3,2.3,6.1,0,8.4l-1.8,1.8c0-1-0.1-2-0.5-2.9l0.6-0.6c1.4-1.4,1.4-3.7,0-5c-1.4-1.4-3.7-1.4-5,0
	L9.3,7.6C7.9,9,7.9,11.3,9.3,12.7 M12.7,7.6c0.5-0.5,1.2-0.5,1.7,0c2.3,2.3,2.3,6.1,0,8.4l0,0l-4.2,4.2c-2.3,2.3-6.1,2.3-8.4,0
	c-2.3-2.3-2.3-6.1,0-8.4l1.8-1.8c0,1,0.1,2,0.5,2.9l-0.6,0.6c-1.4,1.4-1.4,3.7,0,5c1.4,1.4,3.7,1.4,5,0l4.2-4.2c1.4-1.4,1.4-3.7,0-5
	C12.2,8.9,12.2,8.1,12.7,7.6z"/>
</svg>
