<?xml version="1.0" encoding="utf-8"?>
<!-- Generator: Adobe Illustrator 20.1.0, SVG Export Plug-In . SVG Version: 6.00 Build 0)  -->
<svg version="1.1" id="Слой_1" xmlns="http://www.w3.org/2000/svg" xmlns:xlink="http://www.w3.org/1999/xlink" x="0px" y="0px"
	 viewBox="0 0 126 43" style="enable-background:new 0 0 126 43;" xml:space="preserve">
<style type="text/css">
	.st0{fill-rule:evenodd;clip-rule:evenodd;fill:#666666;}
	.st1{fill-rule:evenodd;clip-rule:evenodd;fill:#999999;}
</style>
<path class="st0" d="M121,7.7c-0.5,0-0.8,0.1-1.1,0.4c-0.2,0.2-0.4,0.5-0.4,0.9c0,0.4,0.1,0.7,0.4,1c0.3,0.3,0.9,0.7,1.7,1.1
	c1,0.5,1.7,1,2.1,1.4c0.4,0.4,0.7,0.8,0.9,1.3c0.2,0.5,0.3,1.1,0.3,1.7c0,1.4-0.5,2.5-1.4,3.3c-0.9,0.8-2.2,1.2-4,1.2
	c-1.6,0-2.9-0.3-3.9-0.8v-3c0.5,0.3,1.1,0.6,1.8,0.8c0.7,0.2,1.3,0.3,1.8,0.3c0.6,0,1-0.1,1.3-0.4c0.3-0.3,0.5-0.6,0.5-1
	c0-0.4-0.2-0.8-0.5-1.2c-0.3-0.3-0.9-0.7-1.8-1.2c-1.1-0.6-2-1.3-2.5-2c-0.5-0.7-0.7-1.5-0.7-2.5c0-1.2,0.5-2.2,1.4-2.9
	c0.9-0.7,2.2-1.1,3.8-1.1c1.4,0,2.7,0.3,4,1l-1.2,2.5C122.7,8,121.8,7.7,121,7.7z M110.6,11.1c1,0.5,1.7,1,2.1,1.4
	c0.4,0.4,0.7,0.8,0.9,1.3c0.2,0.5,0.3,1.1,0.3,1.7c0,1.4-0.5,2.5-1.4,3.3c-0.9,0.8-2.2,1.2-4,1.2c-1.6,0-2.9-0.3-3.9-0.8v-3
	c0.5,0.3,1.1,0.6,1.8,0.8c0.7,0.2,1.3,0.3,1.8,0.3c0.6,0,1-0.1,1.3-0.4c0.3-0.3,0.5-0.6,0.5-1c0-0.4-0.2-0.8-0.5-1.2
	c-0.3-0.3-0.9-0.7-1.8-1.2c-1.1-0.6-2-1.3-2.5-2c-0.5-0.7-0.7-1.5-0.7-2.5c0-1.2,0.5-2.2,1.4-2.9c0.9-0.7,2.2-1.1,3.8-1.1
	c1.4,0,2.7,0.3,4,1l-1.2,2.5c-1-0.5-1.9-0.8-2.7-0.8c-0.5,0-0.8,0.1-1.1,0.4s-0.4,0.5-0.4,0.9c0,0.4,0.1,0.7,0.4,1
	C109.2,10.3,109.7,10.7,110.6,11.1z M95.9,16.3c0.6,0.6,1.4,0.9,2.4,0.9c1.3,0,2.6-0.4,4-1.1V19c-1.3,0.7-2.8,1-4.6,1
	c-2.1,0-3.7-0.6-4.9-1.9c-1.2-1.3-1.8-3.2-1.8-5.6c0-2.4,0.5-4.2,1.6-5.5c1.1-1.3,2.6-2,4.5-2c1.8,0,3.2,0.6,4.3,1.7
	c1,1.1,1.5,2.7,1.5,4.8V13h-8C95,14.3,95.4,15.6,95.9,16.3z M99.1,10.9c0-1.1-0.2-1.9-0.6-2.4c-0.3-0.5-0.8-0.8-1.4-0.8
	c-0.6,0-1,0.3-1.4,0.8c-0.4,0.5-0.6,1.3-0.6,2.4H99.1z M88.7,8.4c-0.9,0-1.6,0.3-2.1,1C86,10.1,86,11,86,12.3l0,7.7h-4l0-14.7h3.1
	l0.4,2.3h0.1C86.1,6.6,86.6,6,87,5.6C87.5,5.2,88.1,5,88.8,5c0.5,0,0.9,0.1,1.4,0.2l-0.4,3.4C89.4,8.4,89.1,8.4,88.7,8.4z
	 M74.8,20.5c-0.7,0-1.3-0.1-1.8-0.4c-0.5-0.3-1.5-1.2-2-2l0,0c0,0,0,2.7,0,3v6h-3V5h3l0.3,1.8h0.2c0.8-1.5,1.9-2.3,3.4-2.3
	c1.4,0,2.6,0.7,3.4,2.1c0.8,1.4,1.2,3.3,1.2,5.9c0,2.5-0.4,4.5-1.3,5.9C77.4,19.8,76.2,20.5,74.8,20.5z M75.1,8.8
	c-0.3-0.8-0.8-1.2-1.5-1.2c-0.7,0-1.3,0.3-1.6,1c-0.3,0.7-0.5,1.8-0.5,3.3v0.5c0,1.7,0.2,2.9,0.5,3.7c0.3,0.8,0.9,1.2,1.6,1.2
	c1.3,0,2-1.6,2-4.9C75.6,10.8,75.5,9.6,75.1,8.8z M62.1,20l-2.4-4.7L57.8,20h-3.9l3.9-7.7L54,5h4l1.9,4.5L62.1,5H66l-4.3,7.3L66,20
	H62.1z M43,0l8.9,0v3.2h-5.5v4.8h5.1v3.3h-5.1v5.6h5.5l0.2,3.1L43,20V0z M32.1,20L28,5h3.9l1.6,8.7c0.1,0.4,0.2,1,0.3,1.8
	c0.1,0.8,0.2,1.4,0.2,1.7h0.1c0-0.3,0-0.7,0.1-1.2c0.1-0.5,0.1-1,0.2-1.4c0.1-0.4,1.2-3.6,2.6-9.6H41l-4.3,15H32.1z M20.2,16.1
	c0.6,0.7,1.3,1,2.3,1c1.2,0,2.5-0.4,3.8-1.1v3c-1.2,0.7-2.7,1-4.4,1c-2,0-3.6-0.7-4.7-2c-1.1-1.3-1.7-3.2-1.7-5.7
	c0-2.5,0.5-4.4,1.6-5.8c1-1.4,2.5-2.1,4.3-2.1c1.7,0,3.1,0.6,4.1,1.8c1,1.2,1.5,2.9,1.5,5l0,1.8h-8C19,14.3,19.7,15.5,20.2,16.1z
	 M23.3,10.5c0-1.1-0.2-1.9-0.5-2.5c-0.3-0.6-0.8-0.9-1.4-0.9c-0.5,0-1,0.3-1.3,0.8c-0.4,0.5-0.6,1.4-0.6,2.5H23.3z M5,20H0L0,0h5.6
	C8,0,9.9,0.9,11.2,2.5c1.3,1.7,2,4.1,2,7.1c0,3.3-0.7,5.7-2.1,7.5C9.8,18.9,7.6,20,5,20z M5.4,3.2H3.9v13.3h1.3
	c1.4,0,2.5-0.6,3.1-1.7c0.7-1.1,1-2.8,1-5.1C9.3,5.4,8,3.2,5.4,3.2z"/>
<path class="st1" d="M122.4,33c-0.8,0-1.4,0.4-1.4,1c0,0.8,0.8,1.1,1.7,1.5c1.1,0.4,2.3,1,2.3,2.5c0,1.3-0.9,2.1-2.5,2.1
	c-1,0-1.9-0.6-2.5-1.3l0.7-0.6c0.4,0.6,1.1,1,1.9,1c0.8,0,1.4-0.4,1.4-1.1c0-0.9-0.9-1.3-1.8-1.7c-1.2-0.5-2.2-1-2.2-2.3
	c0-1.2,1-1.9,2.4-1.9c1,0,1.8,0.4,2.4,1.2l-0.7,0.6C123.8,33.4,123.2,33,122.4,33z M117,29.6l1-0.5v11h-1V29.6z M111.5,40.1
	c-2.1,0-3.5-1.4-3.5-4c0-2.5,1.4-4,3.5-4c2.1,0,3.5,1.4,3.5,4C115,38.6,113.6,40.1,111.5,40.1z M111.5,33c-1.5,0-2.3,1.1-2.3,3.1
	c0,1.9,0.8,3,2.3,3c1.5,0,2.3-1.1,2.3-3.1C113.8,34.2,113,33,111.5,33z M104.9,33.1c-0.8,0-1.8,0.6-1.8,2.5v4.4h-1v-7.8h1v1.1
	c0.3-0.7,1-1.3,1.9-1.3c0.5,0,0.9,0.2,1.1,0.3l-0.2,1C105.6,33.3,105.4,33.1,104.9,33.1z M98.9,39.1c0.5,0,0.8-0.3,1.1-0.4l-0.1,1.1
	c-0.4,0.2-0.7,0.3-1.3,0.3c-1,0-1.4-0.7-1.4-1.8v-5.1H96v-0.9h1.2v-2.6l1-0.5v3.2h1.8v0.9h-1.8v4.7C98.2,38.5,98.3,39.1,98.9,39.1z
	 M92.9,35.3c0-1.6-0.8-2.3-1.9-2.3c-1.1,0-2,0.5-2,2.2v4.8H88v-7.8h1.1v0.9c0.5-0.7,1.2-1,2.1-1c1.9,0,2.8,1.1,2.8,3.7v4.3h-1.1
	V35.3z M83.5,40.1c-2.1,0-3.5-1.4-3.5-4c0-2.5,1.4-4,3.5-4s3.5,1.4,3.5,4C87,38.6,85.6,40.1,83.5,40.1z M83.5,33
	c-1.5,0-2.3,1.1-2.3,3.1c0,1.9,0.8,3,2.3,3c1.5,0,2.3-1.1,2.3-3.1C85.8,34.2,85,33,83.5,33z M74.5,39.1c1.3,0,2-0.5,2.5-1.4l1,0.4
	c-0.5,1-1.6,1.9-3.5,1.9c-3.2,0-4.5-2.7-4.5-5.5c0-2.9,1.4-5.5,4.5-5.5c2,0,2.8,0.8,3.3,1.7l-1,0.5c-0.5-0.7-1.1-1.3-2.4-1.3
	c-2.5,0-3.4,2.4-3.4,4.5C71.2,36.9,72.1,39.1,74.5,39.1z M61.7,40.2c-1.1,0-1.7-0.5-2.1-1v3.3l-1.1,0.5V32.3h1.1V33
	c0.5-0.5,1.1-0.9,2.1-0.9c2,0,3.2,1.6,3.2,4C64.8,38.7,63.5,40.2,61.7,40.2z M61.6,33c-0.8,0-1.6,0.4-2,1.2V38
	c0.5,0.7,1.2,1.2,2,1.2c1.4,0,2.2-1.1,2.2-3.1C63.7,34.2,62.9,33,61.6,33z M55,39.2c-0.6,0.6-1.4,0.9-2.3,0.9
	c-1.5,0-2.6-0.9-2.6-2.6c0-1.8,1.3-2.6,2.8-2.6c0.6,0,1.3,0.1,2.1,0.5v-0.7c0-1.6-0.8-1.9-1.7-1.9c-0.8,0-1.7,0.4-2.3,0.8l-0.3-0.9
	c0.6-0.4,1.6-0.8,2.7-0.8c1.1,0,2.6,0.5,2.6,2.7V40h-1V39.2z M55,36.6c-0.5-0.3-1.3-0.6-2-0.6c-1,0-1.9,0.5-1.9,1.6
	c0,1,0.6,1.7,1.7,1.7c0.9,0,1.7-0.6,2.1-1.2V36.6z M47.7,33.1c-0.8,0-1.9,0.6-1.9,2.5V40h-1.1v-7.7h1.1v1.1c0.3-0.7,1-1.3,1.9-1.3
	c0.5,0,0.9,0.2,1.1,0.3l-0.2,1C48.5,33.3,48.2,33.1,47.7,33.1z M41.6,39.2c0.5,0,0.9-0.3,1.2-0.5l-0.1,1.1c-0.4,0.2-0.8,0.3-1.4,0.3
	c-1.1,0-1.5-0.8-1.5-1.8v-5.2h-1.3v-1h1.3v-2.7l1.1-0.5v3.2h2v1h-2V38C40.7,38.6,40.8,39.2,41.6,39.2z M36.8,38.1
	c0,1.3-1,2.1-2.6,2.1c-1,0-2-0.6-2.6-1.3l0.7-0.7c0.5,0.6,1.2,1.1,2,1.1c0.8,0,1.5-0.4,1.5-1.1c0-0.9-1-1.3-1.9-1.7
	c-1.2-0.5-2.3-1-2.3-2.3c0-1.2,1-2,2.5-2c1,0,1.9,0.4,2.5,1.2l-0.7,0.6c-0.4-0.4-1-0.8-1.8-0.8c-0.9,0-1.5,0.4-1.5,1
	c0,0.8,0.9,1.1,1.8,1.5C35.5,36,36.8,36.5,36.8,38.1z M28.6,39.2c0.5,0,0.9-0.3,1.2-0.5l-0.1,1.1c-0.4,0.2-0.8,0.3-1.4,0.3
	c-1.1,0-1.5-0.8-1.5-1.8v-5.2h-1.3v-1h1.3v-2.7l1.1-0.5v3.2h2v1h-2V38C27.8,38.6,27.9,39.2,28.6,39.2z M20.7,40.1
	c-2,0-3.3-1.4-3.3-4c0-2.5,1.3-4,3.3-4s3.3,1.4,3.3,4C24,38.6,22.7,40.1,20.7,40.1z M20.7,33c-1.4,0-2.2,1.1-2.2,3.1
	c0,1.9,0.8,3,2.2,3c1.4,0,2.2-1.1,2.2-3.1C22.9,34.2,22.2,33,20.7,33z M12.3,40.1c-2,0-3.3-1.4-3.3-4c0-2.5,1.3-4,3.3-4
	s3.3,1.4,3.3,4C15.6,38.6,14.3,40.1,12.3,40.1z M12.3,33c-1.4,0-2.2,1.1-2.2,3.1c0,1.9,0.8,3,2.2,3c1.4,0,2.2-1.1,2.2-3.1
	C14.5,34.2,13.7,33,12.3,33z M3.7,40.1H0v-11h3.4c2.4,0,3.2,1.4,3.2,2.9C6.6,33,6,33.9,5,34.3c1.1,0.3,2,1.2,2,2.7
	C7,38.5,6.2,40.1,3.7,40.1z M5.7,31.9C5.7,31,5.3,30,3.5,30H1l0,4h2C4.6,34.1,5.7,33.1,5.7,31.9z M3,35.1H1l0,4h2.8
	c1.7,0,2.2-1,2.2-2C6,35.9,5.1,35.1,3,35.1z"/>
</svg>
