<?xml version="1.0" encoding="utf-8"?>
<!-- Generator: Adobe Illustrator 20.1.0, SVG Export Plug-In . SVG Version: 6.00 Build 0)  -->
<svg version="1.1" id="Слой_1" xmlns="http://www.w3.org/2000/svg" xmlns:xlink="http://www.w3.org/1999/xlink" x="0px" y="0px"
	 viewBox="0 0 72 72" style="enable-background:new 0 0 72 72;" xml:space="preserve">
<style type="text/css">
	.st0{fill:#2A71DC;}
</style>
<g>
	<g>
		<path class="st0" d="M36,18.8c-9.4,0-17.1,7.7-17.1,17.1c0,9.4,7.7,17.1,17.1,17.1c9.4,0,17.1-7.7,17.1-17.1
			C53.1,26.5,45.4,18.8,36,18.8z M36,49.3c-7.4,0-13.5-6.1-13.5-13.5c0-7.4,6.1-13.5,13.5-13.5c7.4,0,13.5,6.1,13.5,13.5
			C49.5,43.3,43.4,49.3,36,49.3z M72,41.1V30.9L63.2,28c-0.5-2-1.4-3.8-2.3-5.6l4.2-8.3l-7.3-7.3L49.6,11C47.8,10.1,46,9.4,44,8.8
			L41.1,0H30.9L28,8.8c-2,0.5-3.8,1.4-5.6,2.3l-8.3-4.2l-7.3,7.3l4.2,8.3C10.1,24.2,9.4,26,8.8,28L0,30.9v10.3L8.8,44
			c0.5,2,1.4,3.8,2.3,5.6l-4.2,8.3l7.3,7.3l8.3-4.2c1.8,0.9,3.6,1.7,5.6,2.3l2.9,8.8h10.3l2.9-8.8c2-0.5,3.8-1.4,5.6-2.3l8.3,4.2
			l7.3-7.3L61,49.6c0.9-1.8,1.7-3.6,2.3-5.6L72,41.1z M61,57.2l-3.6,3.6l-7.7-3.9l-0.9,0.5c-2.1,1.2-4.2,2.1-6.5,2.7l-0.9,0.3
			l-2.7,8.2h-5.1l-2.7-8.2l-0.9-0.3c-2.3-0.6-4.5-1.5-6.5-2.7l-0.9-0.5l-7.7,3.9L11,57.2l3.9-7.7l-0.5-0.9c-1.2-2-2.1-4.2-2.7-6.5
			l-0.3-0.9l-8.2-2.7v-5.1l8.2-2.7l0.3-0.9c0.6-2.3,1.5-4.5,2.7-6.5l0.5-0.9L11,14.5l3.6-3.6l7.7,3.9l0.9-0.5
			c2.1-1.2,4.2-2.1,6.5-2.7l0.9-0.3l2.7-8.2h5.1l2.7,8.2l0.9,0.3c2.3,0.6,4.5,1.5,6.5,2.7l0.9,0.5l7.7-3.9l3.6,3.6L57,22.2l0.5,0.9
			c1.2,2,2.1,4.2,2.7,6.5l0.3,0.9l8.2,2.7v5.1l-8.2,2.7l-0.3,0.9c-0.6,2.3-1.5,4.5-2.7,6.5L57,49.5L61,57.2z"/>
	</g>
</g>
</svg>
