<?xml version="1.0" encoding="utf-8"?>
<!-- Generator: Adobe Illustrator 21.1.0, SVG Export Plug-In . SVG Version: 6.00 Build 0)  -->
<svg version="1.1" id="_x31_" xmlns="http://www.w3.org/2000/svg" xmlns:xlink="http://www.w3.org/1999/xlink" x="0px" y="0px"
	 viewBox="0 0 30 30" style="enable-background:new 0 0 30 30;" xml:space="preserve">
<style type="text/css">
	.st0{fill:#BCBCBC;}
</style>
<g>
	<g>
		<path class="st0" d="M27,9c-1.3,0-2.4,0.8-2.8,2H20l-3,14L12,1h-2L7,14H5.8c-0.4-1.2-1.5-2-2.8-2c-1.7,0-3,1.3-3,3s1.3,3,3,3
			c1.3,0,2.4-0.8,2.8-2H9l2-11l5,24h2l4-16h2.2c0.4,1.2,1.5,2,2.8,2c1.7,0,3-1.3,3-3S28.7,9,27,9z M3,16c-0.6,0-1-0.4-1-1s0.4-1,1-1
			s1,0.4,1,1S3.6,16,3,16z M27,13c-0.6,0-1-0.4-1-1s0.4-1,1-1s1,0.4,1,1S27.6,13,27,13z"/>
	</g>
</g>
</svg>
