<?xml version="1.0" encoding="utf-8"?>
<!-- Generator: Adobe Illustrator 21.1.0, SVG Export Plug-In . SVG Version: 6.00 Build 0)  -->
<svg version="1.1" id="_x31_" xmlns="http://www.w3.org/2000/svg" xmlns:xlink="http://www.w3.org/1999/xlink" x="0px" y="0px"
	 viewBox="0 0 30 30" style="enable-background:new 0 0 30 30;" xml:space="preserve">
<style type="text/css">
	.st0{fill-rule:evenodd;clip-rule:evenodd;fill:#BCBCBC;}
</style>
<path class="st0" d="M28,20c0,4.4-3.6,8-8,8c-2,0-3.9-0.8-5.3-2H4c-1.1,0-2-0.9-2-2V6c0-1.1,0.9-2,2-2h1V2h2v2h12V2h2v2h1
	c1.1,0,2,0.9,2,2v7.1C26.4,14.5,28,17,28,20z M22,10H4v14h9.1c-0.7-1.2-1.1-2.5-1.1-4c0-4.4,3.6-8,8-8c0.7,0,1.4,0.1,2,0.3V10z
	 M20,14c-3.3,0-6,2.7-6,6s2.7,6,6,6s6-2.7,6-6S23.3,14,20,14z M19,21v-5h2v3h3v2H19z"/>
</svg>
