<?xml version="1.0" encoding="utf-8"?>
<!-- Generator: Adobe Illustrator 21.1.0, SVG Export Plug-In . SVG Version: 6.00 Build 0)  -->
<svg version="1.1" id="_x31_" xmlns="http://www.w3.org/2000/svg" xmlns:xlink="http://www.w3.org/1999/xlink" x="0px" y="0px"
	 viewBox="0 0 30 30" style="enable-background:new 0 0 30 30;" xml:space="preserve">
<style type="text/css">
	.st0{fill-rule:evenodd;clip-rule:evenodd;fill:#BCBCBC;}
</style>
<path class="st0" d="M27,27v-1V12l3,3v12H27z M26,8.8V27h-2V8.8c-1.2-0.4-2-1.5-2-2.8c0-1.7,1.3-3,3-3s3,1.3,3,3
	C28,7.3,27.2,8.4,26,8.8z M25,5c-0.6,0-1,0.4-1,1s0.4,1,1,1s1-0.4,1-1S25.6,5,25,5z M23,27H7V14l4-4l4,5l8-5V27z M6,8.8V27H4V8.8
	C2.8,8.4,2,7.3,2,6c0-1.7,1.3-3,3-3s3,1.3,3,3C8,7.3,7.2,8.4,6,8.8z M5,5C4.4,5,4,5.4,4,6s0.4,1,1,1s1-0.4,1-1S5.6,5,5,5z M3,27H0
	v-8l3-2V27z"/>
</svg>
