<?xml version="1.0" encoding="utf-8"?>
<!-- Generator: Adobe Illustrator 20.1.0, SVG Export Plug-In . SVG Version: 6.00 Build 0)  -->
<svg version="1.1" id="Слой_1" xmlns="http://www.w3.org/2000/svg" xmlns:xlink="http://www.w3.org/1999/xlink" x="0px" y="0px"
	 viewBox="0 0 72 72" style="enable-background:new 0 0 72 72;" xml:space="preserve">
<style type="text/css">
	.st0{fill-rule:evenodd;clip-rule:evenodd;fill:#2A71DC;}
</style>
<path class="st0" d="M68,72H4c-2.2,0-4-1.8-4-4V4c0-2.2,1.8-4,4-4h64c2.2,0,4,1.8,4,4v64C72,70.2,70.2,72,68,72z M25,4H4v64h21V4z
	 M68,4H29v64h39V4z M62,21v2H35v-2v-2h27V21z M62,31v2H35v-2v-2h27V31z M62,41v2H35v-2v-2h27V41z M62,51v2H35v-2v-2h27V51z"/>
</svg>
