<?xml version="1.0" encoding="utf-8"?>
<!-- Generator: Adobe Illustrator 20.1.0, SVG Export Plug-In . SVG Version: 6.00 Build 0)  -->
<svg version="1.1" id="Слой_1" xmlns="http://www.w3.org/2000/svg" xmlns:xlink="http://www.w3.org/1999/xlink" x="0px" y="0px"
	 viewBox="0 0 72 72" style="enable-background:new 0 0 72 72;" xml:space="preserve">
<style type="text/css">
	.st0{fill-rule:evenodd;clip-rule:evenodd;fill:#2A71DC;}
</style>
<path class="st0" d="M60,34.7V66c0,1.1-0.9,2-2,2s-2-0.9-2-2V34.7c-3.4-0.9-6-4-6-7.7c0-3.7,2.6-6.8,6-7.7V6c0-1.1,0.9-2,2-2
	s2,0.9,2,2v13.3c3.4,0.9,6,4,6,7.7C66,30.7,63.4,33.8,60,34.7z M58,23c-2.2,0-4,1.8-4,4c0,2.2,1.8,4,4,4s4-1.8,4-4
	C62,24.8,60.2,23,58,23z M38,54.7V66c0,1.1-0.9,2-2,2c-1.1,0-2-0.9-2-2V54.7c-3.4-0.9-6-4-6-7.7c0-3.7,2.6-6.8,6-7.7V6
	c0-1.1,0.9-2,2-2c1.1,0,2,0.9,2,2v33.3c3.4,0.9,6,4,6,7.7C44,50.7,41.4,53.8,38,54.7z M36,43c-2.2,0-4,1.8-4,4c0,2.2,1.8,4,4,4
	c2.2,0,4-1.8,4-4C40,44.8,38.2,43,36,43z M16,34.7V66c0,1.1-0.9,2-2,2s-2-0.9-2-2V34.7c-3.4-0.9-6-4-6-7.7c0-3.7,2.6-6.8,6-7.7V6
	c0-1.1,0.9-2,2-2s2,0.9,2,2v13.3c3.4,0.9,6,4,6,7.7C22,30.7,19.4,33.8,16,34.7z M14,23c-2.2,0-4,1.8-4,4c0,2.2,1.8,4,4,4
	c2.2,0,4-1.8,4-4C18,24.8,16.2,23,14,23z"/>
</svg>
