<?xml version="1.0" encoding="utf-8"?>
<!-- Generator: Adobe Illustrator 20.1.0, SVG Export Plug-In . SVG Version: 6.00 Build 0)  -->
<svg version="1.1" id="Слой_1" xmlns="http://www.w3.org/2000/svg" xmlns:xlink="http://www.w3.org/1999/xlink" x="0px" y="0px"
	 viewBox="0 0 72 72" style="enable-background:new 0 0 72 72;" xml:space="preserve">
<style type="text/css">
	.st0{fill-rule:evenodd;clip-rule:evenodd;fill:#2A71DC;}
</style>
<path class="st0" d="M68.7,41.8c0.9,1,1.5,2.5,1.5,3.7c0,2.4-1.8,4.3-3.5,5.5c0.5,0.9,0.8,2.1,0.8,3.4c0,2.7-1.8,5.1-4.7,6.1
	c0.2,0.4,0.2,1,0.2,1.6c0,3.1-3.3,6.7-7.8,6.7H33.6c-2.9,0-5.4-1.2-7.8-2.4C24.5,66,23.2,65.4,22,65c0,2.5-1.5,4-4,4H4
	c-2.5,0-4-1.4-4-4V33c0-2.5,1.5-4,4-4h14c1.9,0,3.2,0.9,3.8,2.4c4.6-3.7,9.7-8.6,11.8-14.3L35.8,5c0.2-0.6,0.5-1.2,1.1-1.5
	C39,2.1,40.5,2,42.6,2c3.2,0,6.8,2.7,6.8,15.7c0,3.3-0.3,7.3-1.4,11.3h15c5.3,0,9,2.4,9,7.2C72,38.3,70.6,40.3,68.7,41.8z M18,33H4
	v32h14V33z M63,33H43c-1.2,0-2.7-0.7-2.7-1.9c0-1.2,1.1-2.2,2.3-2.2h0.6c1.2-4.2,1.8-7.9,1.8-11.2c0-8.5-1.8-11.2-2.3-11.2
	c-1.2,0-1.8,0-2.6,0.3L38.1,18c-0.2,0-0.2,0.1-0.2,0.3C35.1,26,27.6,32.8,22,37v23c2,0.4,4,1.7,5.8,2.6c2,1,4.5,2.4,6.2,2.4h21
	c1.8,0,3.4-1.4,3.4-2.7c0-2.4-0.8-3-0.2-4c0.6-0.9,4.1-1,4.5-3.3c0-0.1,0-0.3,0-0.4c0-2.7-1.7-3.3-1.1-4.9c0.5-1.3,3.9-1.3,3.9-4.2
	c0-2.7-2.3-3.3-1.8-4.8c0.5-1.3,3.5-1.6,3.5-4.5C67.3,34.4,65.3,33,63,33z"/>
</svg>
