<?xml version="1.0" encoding="utf-8"?>
<!-- Generator: Adobe Illustrator 20.1.0, SVG Export Plug-In . SVG Version: 6.00 Build 0)  -->
<svg version="1.1" id="Слой_1" xmlns="http://www.w3.org/2000/svg" xmlns:xlink="http://www.w3.org/1999/xlink" x="0px" y="0px"
	 viewBox="0 0 30 30" style="enable-background:new 0 0 30 30;" xml:space="preserve">
<style type="text/css">
	.st0{fill:#FFFFFF;}
</style>
<g>
	<g>
		<path class="st0" d="M20,20c-1.7,0-3,1.3-3,3s1.3,3,3,3s3-1.3,3-3S21.7,20,20,20z M9.4,8L8,3H3v2h3l2,13h15l3-10H9.4z M21.6,16H10
			l-0.4-2h13L21.6,16z M22.6,12H10l-0.4-2h14L22.6,12z M10,20c-1.7,0-3,1.3-3,3s1.3,3,3,3s3-1.3,3-3S11.7,20,10,20z"/>
	</g>
</g>
</svg>
