<?xml version="1.0" encoding="utf-8"?>
<!-- Generator: Adobe Illustrator 21.1.0, SVG Export Plug-In . SVG Version: 6.00 Build 0)  -->
<svg version="1.1" id="Слой_1" xmlns="http://www.w3.org/2000/svg" xmlns:xlink="http://www.w3.org/1999/xlink" x="0px" y="0px"
	 viewBox="0 0 27 27" enable-background="new 0 0 27 27" xml:space="preserve">
<g>
	<path fill-rule="evenodd" clip-rule="evenodd" fill="#FFFFFF" d="M25,27h-9c-1.1,0-2-0.9-2-2v-9c0-1.1,0.9-2,2-2h9c1.1,0,2,0.9,2,2
		v9C27,26.1,26.1,27,25,27z M25,16h-9v6h9V16z M25,23h-9v2h9V23z M25,13h-9c-1.1,0-2-0.9-2-2V2c0-1.1,0.9-2,2-2h9c1.1,0,2,0.9,2,2v9
		C27,12.1,26.1,13,25,13z M25,2h-9v6h9V2z M25,9h-9v2h9V9z M11,27H2c-1.1,0-2-0.9-2-2v-9c0-1.1,0.9-2,2-2h9c1.1,0,2,0.9,2,2v9
		C13,26.1,12.1,27,11,27z M11,16H2v6h9V16z M11,23H2v2h9V23z M11,13H2c-1.1,0-2-0.9-2-2V2c0-1.1,0.9-2,2-2h9c1.1,0,2,0.9,2,2v9
		C13,12.1,12.1,13,11,13z M11,2H2v6h9V2z M11,9H2v2h9V9z"/>
</g>
</svg>
